<?xml version="1.0" encoding="UTF-8"?>
<svg version="1.1" xmlns="http://www.w3.org/2000/svg" width="256" height="256">
<path d="M0 0 C84.48 0 168.96 0 256 0 C256 84.48 256 168.96 256 256 C171.52 256 87.04 256 0 256 C0 171.52 0 87.04 0 0 Z " fill="#FDFDFE" transform="translate(0,0)"/>
<path d="M0 0 C3.625 0.125 3.625 0.125 6.625 1.125 C8.08598845 4.0469769 7.73634901 6.62393475 7.72265625 9.8828125 C7.7212413 10.54586395 7.71982635 11.20891541 7.71836853 11.89205933 C7.71276754 14.01141863 7.700215 16.13067259 7.6875 18.25 C7.68248512 19.68619639 7.67792219 21.12239444 7.67382812 22.55859375 C7.66279782 26.08076345 7.64553259 29.60287145 7.625 33.125 C10.31335832 30.45447538 12.98034285 27.78242969 15.52734375 24.9765625 C16.53889775 23.90088671 17.55061815 22.82536739 18.5625 21.75 C19.06201172 21.19183594 19.56152344 20.63367188 20.07617188 20.05859375 C21.58984375 18.4765625 21.58984375 18.4765625 24.625 16.125 C28.43190804 16.15242071 29.92485248 16.42485248 32.625 19.125 C33.25 21.8125 33.25 21.8125 32.625 25.125 C30.23417083 27.81172387 27.46716338 29.93480242 24.625 32.125 C23.45450952 33.09959249 22.2873029 34.07815735 21.125 35.0625 C19.8875 36.0834375 19.8875 36.0834375 18.625 37.125 C19.19957877 40.55985993 20.26148292 42.07820803 22.8203125 44.40234375 C23.45324219 44.99853516 24.08617187 45.59472656 24.73828125 46.20898438 C26.0817194 47.4467735 27.43072347 48.6785482 28.78515625 49.90429688 C30.55195673 51.57896359 32.17772574 53.16695709 33.625 55.125 C33.6796875 57.94140625 33.6796875 57.94140625 32.625 60.125 C30.625 62.125 30.625 62.125 27.9453125 62.703125 C22.89567347 61.82389373 20.74631414 58.65189452 17.5 54.875 C16.28940022 53.51532424 15.07847166 52.15594111 13.8671875 50.796875 C13.3397998 50.1894043 12.81241211 49.58193359 12.26904297 48.95605469 C10.46182309 46.94326153 8.53777024 45.03777024 6.625 43.125 C6.625 49.395 6.625 55.665 6.625 62.125 C3.655 62.125 0.685 62.125 -2.375 62.125 C-4.65445642 58.70581537 -4.62352654 57.49188064 -4.61791992 53.47607422 C-4.62099655 52.31832489 -4.62407318 51.16057556 -4.62724304 49.96774292 C-4.62005753 48.71768463 -4.61287201 47.46762634 -4.60546875 46.1796875 C-4.60501053 44.89893341 -4.60455231 43.61817932 -4.6040802 42.2986145 C-4.60251707 39.59013434 -4.59423886 36.88178668 -4.58081055 34.17333984 C-4.56378693 30.69501635 -4.55999726 27.21683798 -4.56075573 23.73847771 C-4.56041918 20.42719471 -4.5515869 17.11595974 -4.54296875 13.8046875 C-4.54185593 12.55058075 -4.5407431 11.296474 -4.53959656 10.00436401 C-4.53321671 8.85291901 -4.52683685 7.701474 -4.52026367 6.51513672 C-4.51645187 5.49604218 -4.51264008 4.47694763 -4.50871277 3.42697144 C-4.29443051 -0.26206767 -3.82194683 0.14155359 0 0 Z " fill="#4776B4" transform="translate(194.375,102.875)"/>
<path d="M0 0 C1.04897461 -0.00580078 1.04897461 -0.00580078 2.11914062 -0.01171875 C6.24715562 -0.00399562 10.13877695 0.32415368 14.1875 1.125 C14.1875 1.785 14.1875 2.445 14.1875 3.125 C14.8475 3.125 15.5075 3.125 16.1875 3.125 C22.99750107 10.63948394 21.75183801 19.61597694 21.5 29.125 C21.47488662 30.7747058 21.45207881 32.4244484 21.43164062 34.07421875 C21.37688229 38.09206316 21.29078207 42.10812198 21.1875 46.125 C19.56259046 46.15198189 17.93755367 46.17138757 16.3125 46.1875 C15.40757812 46.19910156 14.50265625 46.21070313 13.5703125 46.22265625 C11.1875 46.125 11.1875 46.125 9.1875 45.125 C8.8575 34.235 8.5275 23.345 8.1875 12.125 C3.28324976 9.23424604 3.28324976 9.23424604 -6.8125 11.125 C-7.1425 22.675 -7.4725 34.225 -7.8125 46.125 C-16.8125 46.125 -16.8125 46.125 -18.8125 45.125 C-19.01059361 39.66256862 -19.15557407 34.20223481 -19.25195312 28.73706055 C-19.29213212 26.8792682 -19.34668925 25.02172804 -19.41601562 23.16479492 C-19.51333198 20.4907419 -19.5584756 17.82003448 -19.59375 15.14453125 C-19.63504028 14.31726028 -19.67633057 13.48998932 -19.71887207 12.63764954 C-19.72074412 10.2197569 -19.63138909 8.40334359 -18.8125 6.125 C-13.33255269 0.94251841 -7.29026607 -0.03965693 0 0 Z " fill="#3E6FB0" transform="translate(162.8125,118.875)"/>
<path d="M0 0 C1.98599389 1.2215736 3.74104986 2.50471789 5.5078125 4.0234375 C6.3121875 4.7040625 7.1165625 5.3846875 7.9453125 6.0859375 C10.71488656 9.52020933 10.62681692 12.97910185 10.5703125 17.2734375 C10.56128906 18.16546875 10.55226562 19.0575 10.54296875 19.9765625 C10.53136719 20.65203125 10.51976562 21.3275 10.5078125 22.0234375 C2.26270795 26.52076725 -8.36282607 25.1316908 -17.4921875 25.0234375 C-17.4921875 24.0334375 -17.4921875 23.0434375 -17.4921875 22.0234375 C-18.1521875 21.3634375 -18.8121875 20.7034375 -19.4921875 20.0234375 C-16.90965857 19.51894348 -14.32630047 19.01969449 -11.7421875 18.5234375 C-11.01257813 18.38035156 -10.28296875 18.23726562 -9.53125 18.08984375 C-6.09875218 17.43454871 -3.00049259 17.0234375 0.5078125 17.0234375 C-1.01774716 12.21220903 -1.01774716 12.21220903 -4.4921875 9.0234375 C-8.63528926 8.60752767 -12.28083282 8.25837139 -15.8671875 10.5234375 C-16.4034375 11.0184375 -16.9396875 11.5134375 -17.4921875 12.0234375 C-18.4821875 12.0234375 -19.4721875 12.0234375 -20.4921875 12.0234375 C-20.42 13.22742188 -20.3478125 14.43140625 -20.2734375 15.671875 C-20.17965661 17.24739399 -20.0859083 18.82291493 -19.9921875 20.3984375 C-19.94449219 21.1925 -19.89679687 21.9865625 -19.84765625 22.8046875 C-19.4921875 28.796875 -19.4921875 28.796875 -19.4921875 31.0234375 C-18.8321875 31.0234375 -18.1721875 31.0234375 -17.4921875 31.0234375 C-17.1621875 31.6834375 -16.8321875 32.3434375 -16.4921875 33.0234375 C-13.46284259 33.68116178 -13.46284259 33.68116178 -10.4921875 34.0234375 C-10.4921875 34.6834375 -10.4921875 35.3434375 -10.4921875 36.0234375 C-2.37368564 35.4340384 -2.37368564 35.4340384 5.6953125 34.3984375 C6.6234375 34.2746875 7.5515625 34.1509375 8.5078125 34.0234375 C8.8378125 34.3534375 9.1678125 34.6834375 9.5078125 35.0234375 C9.22051195 37.36288486 8.88844471 39.6973518 8.5078125 42.0234375 C7.8478125 42.0234375 7.1878125 42.0234375 6.5078125 42.0234375 C6.5078125 42.6834375 6.5078125 43.3434375 6.5078125 44.0234375 C-1.65078339 46.86120998 -11.37193128 47.45521245 -19.4921875 44.0234375 C-21.5539566 42.18783184 -22.86535767 40.30099927 -24.4921875 38.0234375 C-25.2346875 37.5490625 -25.9771875 37.0746875 -26.7421875 36.5859375 C-28.9013203 34.65814036 -29.15769927 33.14328635 -29.3984375 30.30859375 C-29.429375 29.55449219 -29.4603125 28.80039063 -29.4921875 28.0234375 C-29.54375 27.01152344 -29.5953125 25.99960938 -29.6484375 24.95703125 C-29.86650535 17.11567482 -29.65000959 10.87203317 -24.4921875 4.5859375 C-22.4921875 3.0234375 -22.4921875 3.0234375 -19.4921875 2.0234375 C-19.1621875 1.3634375 -18.8321875 0.7034375 -18.4921875 0.0234375 C-12.75557541 -1.88876653 -5.68163154 -2.22634465 0 0 Z " fill="#E52F60" transform="translate(65.4921875,119.9765625)"/>
<path d="M0 0 C1.04976964 3.14930893 1.10131595 5.38814456 1.0625 8.6875 C1.05347656 9.68136719 1.04445313 10.67523438 1.03515625 11.69921875 C1.02355469 12.45847656 1.01195312 13.21773437 1 14 C2.39025391 13.98259766 2.39025391 13.98259766 3.80859375 13.96484375 C5.00613281 13.95582031 6.20367188 13.94679688 7.4375 13.9375 C8.63246094 13.92589844 9.82742187 13.91429688 11.05859375 13.90234375 C14 14 14 14 15 15 C15.125 18 15.125 18 15 21 C14 22 14 22 11.05859375 22.09765625 C9.86363281 22.08605469 8.66867188 22.07445312 7.4375 22.0625 C5.64119141 22.04896484 5.64119141 22.04896484 3.80859375 22.03515625 C2.88175781 22.02355469 1.95492188 22.01195312 1 22 C1.13814223 25.9794733 1.28679674 29.95848415 1.4375 33.9375 C1.47681641 35.07380859 1.51613281 36.21011719 1.55664062 37.38085938 C1.61948242 39.00024414 1.61948242 39.00024414 1.68359375 40.65234375 C1.73858032 42.15269165 1.73858032 42.15269165 1.79467773 43.68334961 C1.74671841 45.96069188 1.74671841 45.96069188 3 47 C4.82906235 47.20837419 6.66388134 47.36749659 8.5 47.5 C13.88888889 47.88888889 13.88888889 47.88888889 15 49 C15.1875 52.4375 15.1875 52.4375 15 56 C12.2758438 58.7241562 10.6781266 58.3308802 6.875 58.375 C1.25913877 58.28793238 -3.60275986 57.73938532 -8 54 C-9.87642335 50.9221158 -10.24550138 48.62726749 -10.22705078 45.04785156 C-10.22689972 44.06713684 -10.22674866 43.08642212 -10.22659302 42.07598877 C-10.21627045 41.02481873 -10.20594788 39.97364868 -10.1953125 38.890625 C-10.1924826 37.80867859 -10.18965271 36.72673218 -10.18673706 35.61199951 C-10.17554609 32.15788696 -10.1504432 28.70403412 -10.125 25.25 C-10.11496881 22.90755583 -10.1058432 20.56510759 -10.09765625 18.22265625 C-10.0756103 12.48168229 -10.04214334 6.7408597 -10 1 C-6.78548731 -0.60725635 -3.56387464 -0.05748185 0 0 Z " fill="#E81D54" transform="translate(19,108)"/>
<path d="M0 0 C1.20462891 -0.02126953 1.20462891 -0.02126953 2.43359375 -0.04296875 C4.5625 0.1875 4.5625 0.1875 6.5625 2.1875 C6.80300903 4.70584106 6.80300903 4.70584106 6.78955078 7.92236328 C6.78932419 9.72400436 6.78932419 9.72400436 6.78909302 11.56204224 C6.77877045 12.86414642 6.76844788 14.16625061 6.7578125 15.5078125 C6.75408276 16.85016673 6.75123561 18.19252367 6.74923706 19.53488159 C6.74159744 23.069514 6.7219463 26.60398228 6.6998291 30.1385498 C6.67937765 33.7446877 6.67023685 37.35085209 6.66015625 40.95703125 C6.6387006 48.03392135 6.60456079 55.11069997 6.5625 62.1875 C4.93831255 62.26840971 3.31298255 62.32664995 1.6875 62.375 C0.78257813 62.40980469 -0.12234375 62.44460937 -1.0546875 62.48046875 C-2.23417969 62.33544922 -2.23417969 62.33544922 -3.4375 62.1875 C-5.71695642 58.76831537 -5.68602654 57.55438064 -5.68041992 53.53857422 C-5.68349655 52.38082489 -5.68657318 51.22307556 -5.68974304 50.03024292 C-5.68255753 48.78018463 -5.67537201 47.53012634 -5.66796875 46.2421875 C-5.66751053 44.96143341 -5.66705231 43.68067932 -5.6665802 42.3611145 C-5.66501707 39.65263434 -5.65673886 36.94428668 -5.64331055 34.23583984 C-5.62628693 30.75751635 -5.62249726 27.27933798 -5.62325573 23.80097771 C-5.62291918 20.48969471 -5.6140869 17.17845974 -5.60546875 13.8671875 C-5.60435593 12.61308075 -5.6032431 11.358974 -5.60209656 10.06686401 C-5.59571671 8.91541901 -5.58933685 7.763974 -5.58276367 6.57763672 C-5.57895187 5.55854218 -5.57514008 4.53944763 -5.57121277 3.48947144 C-5.33763622 -0.53173428 -3.58672334 0.02869379 0 0 Z " fill="#3A6DB1" transform="translate(107.4375,102.8125)"/>
<path d="M0 0 C3.3 0 6.6 0 10 0 C11.34049527 2.68099053 11.1198052 4.73311206 11.11352539 7.73486328 C11.11344986 8.93595734 11.11337433 10.13705139 11.11329651 11.37454224 C11.10813522 12.67664642 11.10297394 13.97875061 11.09765625 15.3203125 C11.09579138 16.66266833 11.0943678 18.00502484 11.09336853 19.34738159 C11.08954878 22.88195675 11.07972312 26.41649087 11.06866455 29.9510498 C11.05843878 33.55720464 11.05386841 37.1633661 11.04882812 40.76953125 C11.03810038 47.84637096 11.02103045 54.9231828 11 62 C9.54207116 62.05399736 8.08357288 62.09279177 6.625 62.125 C5.81289062 62.14820313 5.00078125 62.17140625 4.1640625 62.1953125 C2 62 2 62 0 60 C-0.24050903 57.48165894 -0.24050903 57.48165894 -0.22705078 54.26513672 C-0.22689972 53.06404266 -0.22674866 51.86294861 -0.22659302 50.62545776 C-0.21627045 49.32335358 -0.20594788 48.02124939 -0.1953125 46.6796875 C-0.19158276 45.33733327 -0.18873561 43.99497633 -0.18673706 42.65261841 C-0.17909744 39.117986 -0.1594463 35.58351772 -0.1373291 32.0489502 C-0.11687765 28.4428123 -0.10773685 24.83664791 -0.09765625 21.23046875 C-0.0762006 14.15357865 -0.04206079 7.07680003 0 0 Z " fill="#EA1B53" transform="translate(83,103)"/>
<path d="M0 0 C3.5625 0.125 3.5625 0.125 5.5625 1.125 C5.5625 12.345 5.5625 23.565 5.5625 35.125 C6.5525 35.455 7.5425 35.785 8.5625 36.125 C8.5625 38.105 8.5625 40.085 8.5625 42.125 C7.5725 42.125 6.5825 42.125 5.5625 42.125 C5.5625 48.395 5.5625 54.665 5.5625 61.125 C-1.4375 61.125 -1.4375 61.125 -4.4375 59.125 C-4.80499268 56.6893158 -4.80499268 56.6893158 -4.79394531 53.58959961 C-4.79694641 52.43177475 -4.79994751 51.27394989 -4.80303955 50.08103943 C-4.79069275 48.82581985 -4.77834595 47.57060028 -4.765625 46.27734375 C-4.76375183 44.99517471 -4.76187866 43.71300568 -4.75994873 42.39198303 C-4.7553439 39.67745387 -4.74091045 36.96322108 -4.71875 34.2487793 C-4.69043915 30.76257306 -4.679536 27.27660015 -4.6750679 23.79028988 C-4.66992161 20.47343824 -4.65538144 17.15666748 -4.640625 13.83984375 C-4.63637512 12.58259995 -4.63212524 11.32535614 -4.62774658 10.03001404 C-4.61813904 8.87534134 -4.60853149 7.72066864 -4.59863281 6.53100586 C-4.59180481 5.50889511 -4.58497681 4.48678436 -4.57794189 3.43370056 C-4.35146127 -0.28937613 -3.86905737 0.140693 0 0 Z " fill="#4073B5" transform="translate(194.4375,102.875)"/>
<path d="M0 0 C1.81242052 -0.02687279 3.62495233 -0.04633715 5.4375 -0.0625 C6.44683594 -0.07410156 7.45617187 -0.08570312 8.49609375 -0.09765625 C11 0 11 0 12 1 C12.0927833 2.38160115 12.11747043 3.76788038 12.11352539 5.15258789 C12.11344986 6.03342545 12.11337433 6.914263 12.11329651 7.8217926 C12.10813522 8.77907761 12.10297394 9.73636261 12.09765625 10.72265625 C12.0962413 11.69786728 12.09482635 12.67307831 12.09336853 13.67784119 C12.08775133 16.80609143 12.07519593 19.93427123 12.0625 23.0625 C12.05748722 25.17773334 12.05292393 27.29296781 12.04882812 29.40820312 C12.03777631 34.60549296 12.02102146 39.80274145 12 45 C10.56344146 45.08131463 9.1255517 45.13933559 7.6875 45.1875 C6.48673828 45.23970703 6.48673828 45.23970703 5.26171875 45.29296875 C3 45 3 45 1.22831726 43.75053406 C-0.28749436 41.59027795 -0.36421211 40.42754441 -0.34057617 37.80395508 C-0.34034958 36.96331009 -0.34012299 36.1226651 -0.33988953 35.25654602 C-0.32440567 34.35333115 -0.30892181 33.45011627 -0.29296875 32.51953125 C-0.28872391 31.59154221 -0.28447906 30.66355316 -0.28010559 29.70744324 C-0.26330662 26.74216757 -0.22565216 23.7775704 -0.1875 20.8125 C-0.17245474 18.80274419 -0.15876606 16.79297773 -0.14648438 14.78320312 C-0.11339908 9.85520714 -0.06160833 4.92771862 0 0 Z " fill="#4D7AB6" transform="translate(123,120)"/>
<path d="M0 0 C3.0625 2.25 3.0625 2.25 5 5 C5 6.32 5 7.64 5 9 C-0.02649303 10.57077907 -4.76119922 11.44854729 -10 12 C-9.34 12.66 -8.68 13.32 -8 14 C-9.65 14 -11.3 14 -13 14 C-13 14.99 -13 15.98 -13 17 C-9.06200216 16.69357747 -5.12471395 16.37882317 -1.1875 16.0625 C-0.06794922 15.97548828 1.05160156 15.88847656 2.20507812 15.79882812 C3.81479492 15.66831055 3.81479492 15.66831055 5.45703125 15.53515625 C6.9416687 15.41732788 6.9416687 15.41732788 8.45629883 15.29711914 C11.11855838 15.07382992 11.11855838 15.07382992 14 14 C14 10.04 14 6.08 14 2 C14.66 2.33 15.32 2.66 16 3 C16 6.96 16 10.92 16 15 C12.58198985 16.70900507 10.75123668 17.35351929 7.12109375 17.8515625 C5.73954102 18.04492188 5.73954102 18.04492188 4.33007812 18.2421875 C3.37552734 18.36851562 2.42097656 18.49484375 1.4375 18.625 C0.47908203 18.7590625 -0.47933594 18.893125 -1.46679688 19.03125 C-8.51988999 20 -8.51988999 20 -12 20 C-11.34 21.98 -10.68 23.96 -10 26 C-10.99 25.67 -11.98 25.34 -13 25 C-13 24.34 -13 23.68 -13 23 C-13.66 23 -14.32 23 -15 23 C-16.00926479 18.84373632 -16.10239579 14.95634906 -16.0625 10.6875 C-16.05347656 9.43324219 -16.04445312 8.17898437 -16.03515625 6.88671875 C-16.01775391 5.45779297 -16.01775391 5.45779297 -16 4 C-10.7686919 0.43825831 -6.38146013 -1.39557165 0 0 Z " fill="#E56688" transform="translate(61,128)"/>
<path d="M0 0 C0.7940625 0.24105469 1.588125 0.48210937 2.40625 0.73046875 C4.9892867 2.06535898 5.55914877 3.09732607 6.5 5.8125 C6.5 6.8025 6.5 7.7925 6.5 8.8125 C7.16 8.8125 7.82 8.8125 8.5 8.8125 C8.68615302 19.1750183 8.10565429 29.47311606 7.5 39.8125 C3.75 40.9375 3.75 40.9375 1.5 39.8125 C1.20230958 37.36825453 1.03130677 35.02084866 0.9375 32.56640625 C0.90068115 31.84009506 0.8638623 31.11378387 0.82592773 30.36546326 C0.70809772 28.03564687 0.60263071 25.70553252 0.5 23.375 C0.36485882 20.31316828 0.21746114 17.25229143 0.0625 14.19140625 C0.02177368 13.12884361 0.02177368 13.12884361 -0.01977539 12.04481506 C-0.12802637 7.98130652 -0.12802637 7.98130652 -2.5 4.8125 C-4.48821313 4.41485737 -6.48944339 4.07474651 -8.5 3.8125 C-6.33524127 -0.98089433 -5.01001957 -1.60223029 0 0 Z " fill="#386DB4" transform="translate(173.5,122.1875)"/>
<path d="M0 0 C2.3125 -0.25 2.3125 -0.25 5 0 C7.30500426 2.14000395 7.93758162 3.45071829 8.29296875 6.578125 C8.25816406 7.45984375 8.22335938 8.3415625 8.1875 9.25 C8.16042969 10.14203125 8.13335937 11.0340625 8.10546875 11.953125 C8.07066406 12.62859375 8.03585938 13.3040625 8 14 C-0.24510455 18.49732975 -10.87063857 17.1082533 -20 17 C-20 16.01 -20 15.02 -20 14 C-15.24119093 11.99629092 -11.23729896 11.8508214 -6.171875 12.02734375 C-3.9511412 12.15720322 -3.9511412 12.15720322 -2 11 C-1.30906104 8.42048126 -1.30906104 8.42048126 -0.875 5.4375 C-0.70742187 4.42558594 -0.53984375 3.41367188 -0.3671875 2.37109375 C-0.24601562 1.58863281 -0.12484375 0.80617187 0 0 Z " fill="#E71D54" transform="translate(68,128)"/>
<path d="M0 0 C1.04897461 -0.00580078 1.04897461 -0.00580078 2.11914062 -0.01171875 C6.24715562 -0.00399562 10.13877695 0.32415368 14.1875 1.125 C14.1875 1.785 14.1875 2.445 14.1875 3.125 C14.8475 3.125 15.5075 3.125 16.1875 3.125 C22.99750107 10.63948394 21.75183801 19.61597694 21.5 29.125 C21.47488662 30.7747058 21.45207881 32.4244484 21.43164062 34.07421875 C21.37688229 38.09206316 21.29078207 42.10812198 21.1875 46.125 C19.56259046 46.15198189 17.93755367 46.17138757 16.3125 46.1875 C15.40757812 46.19910156 14.50265625 46.21070313 13.5703125 46.22265625 C11.1875 46.125 11.1875 46.125 9.1875 45.125 C9.1875 34.895 9.1875 24.665 9.1875 14.125 C9.5175 14.125 9.8475 14.125 10.1875 14.125 C10.1875 24.025 10.1875 33.925 10.1875 44.125 C13.4875 44.455 16.7875 44.785 20.1875 45.125 C19.8575 34.565 19.5275 24.005 19.1875 13.125 C18.5275 12.795 17.8675 12.465 17.1875 12.125 C15.61201317 9.49918862 15.1875 8.25400213 15.1875 5.125 C14.40375 4.980625 13.62 4.83625 12.8125 4.6875 C10.1875 4.125 10.1875 4.125 8.1875 3.125 C6.66601674 3.04127341 5.14094222 3.01769973 3.6171875 3.02734375 C2.27333984 3.03217773 2.27333984 3.03217773 0.90234375 3.03710938 C-0.03480469 3.04548828 -0.97195312 3.05386719 -1.9375 3.0625 C-3.35482422 3.06926758 -3.35482422 3.06926758 -4.80078125 3.07617188 C-7.13808387 3.08797643 -9.47526061 3.10444241 -11.8125 3.125 C-9.65361125 -1.19277751 -4.22435015 -0.02297924 0 0 Z " fill="#829FC7" transform="translate(162.8125,118.875)"/>
<path d="M0 0 C1.20462891 -0.02126953 1.20462891 -0.02126953 2.43359375 -0.04296875 C4.5625 0.1875 4.5625 0.1875 6.5625 2.1875 C6.80300903 4.70584106 6.80300903 4.70584106 6.78955078 7.92236328 C6.78932419 9.72400436 6.78932419 9.72400436 6.78909302 11.56204224 C6.77877045 12.86414642 6.76844788 14.16625061 6.7578125 15.5078125 C6.75408276 16.85016673 6.75123561 18.19252367 6.74923706 19.53488159 C6.74159744 23.069514 6.7219463 26.60398228 6.6998291 30.1385498 C6.67937765 33.7446877 6.67023685 37.35085209 6.66015625 40.95703125 C6.6387006 48.03392135 6.60456079 55.11069997 6.5625 62.1875 C4.93831255 62.26840971 3.31298255 62.32664995 1.6875 62.375 C0.78257813 62.40980469 -0.12234375 62.44460937 -1.0546875 62.48046875 C-2.23417969 62.33544922 -2.23417969 62.33544922 -3.4375 62.1875 C-5.71695642 58.76831537 -5.68602654 57.55438064 -5.68041992 53.53857422 C-5.68349655 52.38082489 -5.68657318 51.22307556 -5.68974304 50.03024292 C-5.68255753 48.78018463 -5.67537201 47.53012634 -5.66796875 46.2421875 C-5.66751053 44.96143341 -5.66705231 43.68067932 -5.6665802 42.3611145 C-5.66501707 39.65263434 -5.65673886 36.94428668 -5.64331055 34.23583984 C-5.62628693 30.75751635 -5.62249726 27.27933798 -5.62325573 23.80097771 C-5.62291918 20.48969471 -5.6140869 17.17845974 -5.60546875 13.8671875 C-5.60435593 12.61308075 -5.6032431 11.358974 -5.60209656 10.06686401 C-5.59571671 8.91541901 -5.58933685 7.763974 -5.58276367 6.57763672 C-5.57895187 5.55854218 -5.57514008 4.53944763 -5.57121277 3.48947144 C-5.33763622 -0.53173428 -3.58672334 0.02869379 0 0 Z M-3.4375 2.1875 C-4.71503927 4.74257854 -4.57842501 6.57095457 -4.59863281 9.43164062 C-4.60824036 10.52617554 -4.6178479 11.62071045 -4.62774658 12.74841309 C-4.63199646 13.93487427 -4.63624634 15.12133545 -4.640625 16.34375 C-4.64632507 17.55695923 -4.65202515 18.77016846 -4.65789795 20.0201416 C-4.66735632 22.58910243 -4.67388524 25.15807543 -4.67773438 27.72705078 C-4.68745959 31.6711113 -4.71848395 35.6146552 -4.75 39.55859375 C-4.75652776 42.04947606 -4.76177912 44.54036211 -4.765625 47.03125 C-4.7779718 48.21771118 -4.7903186 49.40417236 -4.80303955 50.62658691 C-4.80003845 51.72112183 -4.79703735 52.81565674 -4.79394531 53.94335938 C-4.79759094 54.90995483 -4.80123657 55.87655029 -4.80499268 56.87243652 C-4.6230838 58.01839294 -4.6230838 58.01839294 -4.4375 59.1875 C-1.06769987 61.83465023 -1.06769987 61.83465023 5.5625 61.1875 C5.5625 42.0475 5.5625 22.9075 5.5625 3.1875 C2.25006695 2.35939174 -0.09726579 2.09471572 -3.4375 2.1875 Z " fill="#91A9C4" transform="translate(107.4375,102.8125)"/>
<path d="M0 0 C3.3 0 6.6 0 10 0 C11.34049527 2.68099053 11.1198052 4.73311206 11.11352539 7.73486328 C11.11344986 8.93595734 11.11337433 10.13705139 11.11329651 11.37454224 C11.10813522 12.67664642 11.10297394 13.97875061 11.09765625 15.3203125 C11.09579138 16.66266833 11.0943678 18.00502484 11.09336853 19.34738159 C11.08954878 22.88195675 11.07972312 26.41649087 11.06866455 29.9510498 C11.05843878 33.55720464 11.05386841 37.1633661 11.04882812 40.76953125 C11.03810038 47.84637096 11.02103045 54.9231828 11 62 C9.54207116 62.05399736 8.08357288 62.09279177 6.625 62.125 C5.81289062 62.14820313 5.00078125 62.17140625 4.1640625 62.1953125 C2 62 2 62 0 60 C-0.24050903 57.48165894 -0.24050903 57.48165894 -0.22705078 54.26513672 C-0.22689972 53.06404266 -0.22674866 51.86294861 -0.22659302 50.62545776 C-0.21627045 49.32335358 -0.20594788 48.02124939 -0.1953125 46.6796875 C-0.19158276 45.33733327 -0.18873561 43.99497633 -0.18673706 42.65261841 C-0.17909744 39.117986 -0.1594463 35.58351772 -0.1373291 32.0489502 C-0.11687765 28.4428123 -0.10773685 24.83664791 -0.09765625 21.23046875 C-0.0762006 14.15357865 -0.04206079 7.07680003 0 0 Z M1 2 C1 21.14 1 40.28 1 60 C3.67082039 61.52174919 3.67082039 61.52174919 10 61 C10 41.86 10 22.72 10 3 C7.32917961 1.47825081 7.32917961 1.47825081 1 2 Z " fill="#D7597D" transform="translate(83,103)"/>
<path d="M0 0 C3.56247426 0.79870419 5.14065414 2.57589822 7.1953125 5.4921875 C7.1953125 6.8121875 7.1953125 8.1321875 7.1953125 9.4921875 C1.14701764 10.38823118 -4.6941451 10.60488193 -10.8046875 10.4921875 C-10.93148446 7.21200537 -10.89606777 5.67097499 -9.3671875 2.6796875 C-6.1259406 -0.08723058 -4.1663207 -0.23375397 0 0 Z " fill="#FCEAF1" transform="translate(58.8046875,127.5078125)"/>
<path d="M0 0 C2.31 0 4.62 0 7 0 C6.01 0.66 5.02 1.32 4 2 C2.99877829 5.00366514 2.87887989 6.97739593 2.88647461 10.11401367 C2.88655014 11.15486618 2.88662567 12.19571869 2.88670349 13.26811218 C2.89186478 14.39006485 2.89702606 15.51201752 2.90234375 16.66796875 C2.9037587 17.81791824 2.90517365 18.96786774 2.90663147 20.15266418 C2.91223571 23.83096908 2.92478896 27.50921345 2.9375 31.1875 C2.94251445 33.67903558 2.94707745 36.17057211 2.95117188 38.66210938 C2.96220653 44.77476029 2.97894882 50.88737582 3 57 C4.98 57.33 6.96 57.66 9 58 C9 58.33 9 58.66 9 59 C2.25 59.125 2.25 59.125 0 58 C0 38.86 0 19.72 0 0 Z " fill="#D71F53" transform="translate(84,105)"/>
<path d="M0 0 C2.91311402 2.67691559 3.91041772 4.2385506 4.375 8.1875 C4 11 4 11 2 13 C-4.20491174 13.56408289 -4.20491174 13.56408289 -6.734375 11.76953125 C-8.41407669 9.42105945 -8.20348398 8.1992843 -7.8125 5.375 C-7.71582031 4.57835938 -7.61914062 3.78171875 -7.51953125 2.9609375 C-7.34808594 2.31382813 -7.17664063 1.66671875 -7 1 C-4.37869511 -0.31065245 -2.90828303 -0.415469 0 0 Z " fill="#6D8AB7" transform="translate(244,100)"/>
<path d="M0 0 C1.81593048 2.21069797 1.96823181 3.73950083 2.3125 6.5625 C2 9 2 9 0.875 10.8125 C-1.87155972 12.55198782 -3.81846974 12.39769128 -7 12 C-8.875 10.9375 -8.875 10.9375 -10 9 C-10.36841966 5.56141649 -10.58367385 3.09868019 -8.9375 0 C-5.73669949 -1.65202607 -3.37358673 -0.92006911 0 0 Z " fill="#3F6FB2" transform="translate(133,101)"/>
<path d="M0 0 C1.9453125 -0.29296875 1.9453125 -0.29296875 4.125 -0.1875 C5.40375 -0.125625 6.6825 -0.06375 8 0 C10.08901197 3.39464446 10.34361606 6.04841529 10 10 C8 12 8 12 5.125 12.3125 C1.64947662 11.96494766 0.28506757 11.63661642 -2 9 C-2.51020728 4.91834173 -2.31361802 3.47042703 0 0 Z " fill="#3A6FB2" transform="translate(238,127)"/>
<path d="M0 0 C3.52775489 0.30237899 5.03808865 1.02980851 7.875 3.25 C10 6 10 6 9.9375 8.6875 C9 11 9 11 7 13 C3.35082284 13.47597963 1.66208166 13.50103477 -1.3125 11.25 C-2.95208905 9.06388127 -3.61794563 7.67438062 -4 5 C-3.01 4.34 -2.02 3.68 -1 3 C-0.67 2.01 -0.34 1.02 0 0 Z " fill="#4070B2" transform="translate(218,152)"/>
<path d="M0 0 C0.33 0 0.66 0 1 0 C1.33 16.5 1.66 33 2 50 C2.66 50 3.32 50 4 50 C4.66 50.99 5.32 51.98 6 53 C9.46712111 54.15570704 12.5414956 54.32835293 16.1875 54.5625 C17.45980469 54.64628906 18.73210938 54.73007813 20.04296875 54.81640625 C21.01878906 54.87699219 21.99460937 54.93757813 23 55 C23 52.69 23 50.38 23 48 C20.03 48 17.06 48 14 48 C14 47.67 14 47.34 14 47 C15.64574566 46.97311849 17.29161413 46.95365877 18.9375 46.9375 C19.85402344 46.92589844 20.77054688 46.91429687 21.71484375 46.90234375 C24 47 24 47 25 48 C25.1875 51.4375 25.1875 51.4375 25 55 C22.2758438 57.7241562 20.6781266 57.3308802 16.875 57.375 C11.25913877 57.28793238 6.39724014 56.73938532 2 53 C0.12357665 49.9221158 -0.24550138 47.62726749 -0.22705078 44.04785156 C-0.22689972 43.06713684 -0.22674866 42.08642212 -0.22659302 41.07598877 C-0.21627045 40.02481873 -0.20594788 38.97364868 -0.1953125 37.890625 C-0.1924826 36.80867859 -0.18965271 35.72673218 -0.18673706 34.61199951 C-0.17554609 31.15788696 -0.1504432 27.70403412 -0.125 24.25 C-0.11496881 21.90755583 -0.1058432 19.56510759 -0.09765625 17.22265625 C-0.0756103 11.48168229 -0.04214334 5.7408597 0 0 Z " fill="#D96382" transform="translate(9,109)"/>
<path d="M0 0 C1.51754003 2.41021064 2.02316906 3.68335622 1.8125 6.5625 C0.89602971 9.31191087 0.49831143 10.50101314 -2 12 C-5.6875 11.6875 -5.6875 11.6875 -9 11 C-10.31720856 4.77319588 -10.31720856 4.77319588 -9 1.5625 C-6.05971021 -0.7346014 -3.61386759 -0.27274472 0 0 Z " fill="#4C76B0" transform="translate(246,153)"/>
<path d="M0 0 C0.75796875 0.06445312 1.5159375 0.12890625 2.296875 0.1953125 C4.25 0.875 4.25 0.875 5.515625 2.9296875 C5.87914062 3.89261719 5.87914062 3.89261719 6.25 4.875 C5.26 4.545 4.27 4.215 3.25 3.875 C3.25 3.215 3.25 2.555 3.25 1.875 C-0.38 2.205 -4.01 2.535 -7.75 2.875 C-8.08 14.095 -8.41 25.315 -8.75 36.875 C-9.41 36.875 -10.07 36.875 -10.75 36.875 C-10.75 25.325 -10.75 13.775 -10.75 1.875 C-3.8805483 -0.41481723 -3.8805483 -0.41481723 0 0 Z " fill="#C1D4EB" transform="translate(165.75,128.125)"/>
<path d="M0 0 C3.96 0 7.92 0 12 0 C12 0.66 12 1.32 12 2 C8.7 2 5.4 2 2 2 C2.33 8.93 2.66 15.86 3 23 C5.89362649 24.44681324 8.8083009 24.43242376 12.00390625 24.71875 C14 25 14 25 15 26 C15.04080783 27.99958364 15.04254356 30.00045254 15 32 C14.67 32 14.34 32 14 32 C13.67 30.35 13.34 28.7 13 27 C12.22914062 26.95101562 11.45828125 26.90203125 10.6640625 26.8515625 C9.66117188 26.77679688 8.65828125 26.70203125 7.625 26.625 C6.12839844 26.52058594 6.12839844 26.52058594 4.6015625 26.4140625 C2 26 2 26 0 24 C-0.22705078 21.56982422 -0.22705078 21.56982422 -0.1953125 18.5546875 C-0.18886719 17.47832031 -0.18242187 16.40195313 -0.17578125 15.29296875 C-0.15902344 14.16503906 -0.14226563 13.03710938 -0.125 11.875 C-0.11597656 10.73933594 -0.10695313 9.60367188 -0.09765625 8.43359375 C-0.07403199 5.62230663 -0.0381601 2.81112738 0 0 Z " fill="#F6C8D7" transform="translate(20,130)"/>
<path d="M0 0 C2.05078125 0.03255208 4.1015625 0.06510417 6.15234375 0.09765625 C7.15731227 3.11256182 7.25569678 5.13947317 7.21484375 8.28515625 C7.20582031 9.18621094 7.19679688 10.08726563 7.1875 11.015625 C7.17589844 11.70269531 7.16429687 12.38976562 7.15234375 13.09765625 C6.49234375 13.09765625 5.83234375 13.09765625 5.15234375 13.09765625 C4.82234375 9.46765625 4.49234375 5.83765625 4.15234375 2.09765625 C2.17234375 2.09765625 0.19234375 2.09765625 -1.84765625 2.09765625 C-1.84765625 17.27765625 -1.84765625 32.45765625 -1.84765625 48.09765625 C-2.17765625 48.09765625 -2.50765625 48.09765625 -2.84765625 48.09765625 C-2.8729257 41.42245285 -2.89048893 34.74726168 -2.90258789 28.07202148 C-2.9076295 25.79923034 -2.91446262 23.52644245 -2.9230957 21.25366211 C-2.93516886 17.99462074 -2.94088612 14.73562208 -2.9453125 11.4765625 C-2.95047379 10.45365616 -2.95563507 9.43074982 -2.96095276 8.37684631 C-2.96102829 7.4359465 -2.96110382 6.49504669 -2.96118164 5.52563477 C-2.96340225 4.69290543 -2.96562286 3.86017609 -2.96791077 3.00221252 C-2.80689768 0.45213376 -2.5565327 0.13512329 0 0 Z " fill="#D72557" transform="translate(12.84765625,107.90234375)"/>
<path d="M0 0 C-0.25561323 2.3431213 -0.59270772 4.67843403 -1 7 C-4.21451269 8.60725635 -7.43612536 8.05748185 -11 8 C-10.9375 5.1875 -10.9375 5.1875 -10 2 C-4.12244898 -1.37414966 -4.12244898 -1.37414966 0 0 Z " fill="#E12559" transform="translate(75,155)"/>
<path d="M0 0 C2 2 2 2 2.22705078 4.98095703 C2.21657715 6.22731934 2.20610352 7.47368164 2.1953125 8.7578125 C2.1924826 9.42086395 2.18965271 10.08391541 2.18673706 10.76705933 C2.17553435 12.88655583 2.15043051 15.00563104 2.125 17.125 C2.11497028 18.56119182 2.10584441 19.99739025 2.09765625 21.43359375 C2.075595 24.95586628 2.04106494 28.47789203 2 32 C2.66 32.33 3.32 32.66 4 33 C2.02 33.495 2.02 33.495 0 34 C0 22.78 0 11.56 0 0 Z " fill="#7A98C6" transform="translate(200,104)"/>
<path d="M0 0 C2.26918869 0.02144115 4.47674319 0.13839224 6.73046875 0.3984375 C6.73046875 1.0584375 6.73046875 1.7184375 6.73046875 2.3984375 C7.72046875 2.7284375 8.71046875 3.0584375 9.73046875 3.3984375 C9.07046875 3.3984375 8.41046875 3.3984375 7.73046875 3.3984375 C7.40046875 4.3884375 7.07046875 5.3784375 6.73046875 6.3984375 C2.44046875 6.3984375 -1.84953125 6.3984375 -6.26953125 6.3984375 C-3.49786106 0.61408232 -3.49786106 0.61408232 0 0 Z " fill="#E71B52" transform="translate(58.26953125,120.6015625)"/>
<path d="M0 0 C1.9453125 -0.29296875 1.9453125 -0.29296875 4.125 -0.1875 C5.40375 -0.125625 6.6825 -0.06375 8 0 C10.08901197 3.39464446 10.34361606 6.04841529 10 10 C8 12 8 12 5 12.25 C2 12 2 12 0 10 C2.64 10 5.28 10 8 10 C8 7.69 8 5.38 8 3 C3.85906302 2.79029441 3.85906302 2.79029441 0 4 C-0.65555119 6.52733235 -0.65555119 6.52733235 -1 9 C-1.33 9 -1.66 9 -2 9 C-2.25 3.375 -2.25 3.375 0 0 Z " fill="#6B88B9" transform="translate(238,127)"/>
<path d="M0 0 C2.31 0 4.62 0 7 0 C7 2.64 7 5.28 7 8 C4.69 8 2.38 8 0 8 C0 5.36 0 2.72 0 0 Z " fill="#3A6DB2" transform="translate(238,102)"/>
<path d="M0 0 C2.30078125 0.23046875 2.30078125 0.23046875 8.30078125 2.23046875 C8.30078125 13.45046875 8.30078125 24.67046875 8.30078125 36.23046875 C7.97078125 36.23046875 7.64078125 36.23046875 7.30078125 36.23046875 C7.28096191 35.33739014 7.26114258 34.44431152 7.24072266 33.52416992 C7.16259427 30.20846167 7.07590154 26.89320713 6.98339844 23.57788086 C6.94513259 22.14339807 6.91027544 20.7088201 6.87890625 19.27416992 C6.83320263 17.21107997 6.77521932 15.1486438 6.71484375 13.0859375 C6.6677124 11.22424927 6.6677124 11.22424927 6.61962891 9.32495117 C6.52678916 6.06410774 6.52678916 6.06410774 4.30078125 3.23046875 C2.17245215 2.68676697 2.17245215 2.68676697 -0.19921875 2.60546875 C-4.54132401 2.30941612 -4.54132401 2.30941612 -6.69921875 1.23046875 C-4.87863699 -0.59011301 -2.42118236 0.05171457 0 0 Z " fill="#5377A9" transform="translate(165.69921875,126.76953125)"/>
<path d="M0 0 C1.66611905 -0.042721 3.33382885 -0.04063832 5 0 C6 1 6 1 6.125 4 C6 7 6 7 5 8 C0.66469082 8.14393457 -3.66157731 8.04212061 -8 8 C-8 15.26 -8 22.52 -8 30 C-8.33 30 -8.66 30 -9 30 C-9 22.41 -9 14.82 -9 7 C-4.71 7 -0.42 7 4 7 C3.67 5.35 3.34 3.7 3 2 C2.01 1.34 1.02 0.68 0 0 Z " fill="#DC3F6A" transform="translate(28,122)"/>
<path d="M0 0 C0.66 0.33 1.32 0.66 2 1 C1.525625 1.598125 1.05125 2.19625 0.5625 2.8125 C-2.35005854 6.89008196 -2.20582813 10.91217465 -2.31640625 15.73046875 C-2.33718735 16.48088943 -2.35796844 17.23131012 -2.37937927 18.00447083 C-2.44469926 20.39872184 -2.50367792 22.79308139 -2.5625 25.1875 C-2.60570193 26.81186013 -2.64931676 28.43620933 -2.69335938 30.06054688 C-2.80036263 34.04025371 -2.90167937 38.02006958 -3 42 C-3.33 42 -3.66 42 -4 42 C-4.09881786 36.50078594 -4.17144379 31.00208765 -4.21972656 25.50219727 C-4.23985207 23.63101196 -4.26715549 21.75988961 -4.30175781 19.88891602 C-4.35023581 17.20052568 -4.37295872 14.51296612 -4.390625 11.82421875 C-4.41127014 10.98662521 -4.43191528 10.14903168 -4.45318604 9.28605652 C-4.45544041 3.46153712 -4.45544041 3.46153712 -1.97558594 0.94848633 C-1.32364258 0.63548584 -0.67169922 0.32248535 0 0 Z " fill="#7F9FC7" transform="translate(148,122)"/>
<path d="M0 0 C4.43458973 1.3937282 6.87378374 3.60582235 10 7 C9.34 8.32 8.68 9.64 8 11 C8 9.68 8 8.36 8 7 C5.13275314 7.57344937 4.1385485 7.8614515 2 10 C1.01 9.34 0.02 8.68 -1 8 C-0.649375 7.236875 -0.29875 6.47375 0.0625 5.6875 C1.32360884 2.95240621 1.32360884 2.95240621 0 0 Z " fill="#E2275B" transform="translate(65,121)"/>
<path d="M0 0 C0.66 0.33 1.32 0.66 2 1 C1.34 1.66 0.68 2.32 0 3 C-0.33 4.65 -0.66 6.3 -1 8 C3.62 7.67 8.24 7.34 13 7 C9.36280395 9.42479736 7.14296518 9.38662577 2.8125 9.625 C1.54019531 9.69976562 0.26789062 9.77453125 -1.04296875 9.8515625 C-2.50669922 9.92503906 -2.50669922 9.92503906 -4 10 C-4 7.36 -4 4.72 -4 2 C-2.125 0.9375 -2.125 0.9375 0 0 Z " fill="#E57190" transform="translate(49,130)"/>
<path d="M0 0 C1.40958984 0.24556641 1.40958984 0.24556641 2.84765625 0.49609375 C7.7063754 1.19019649 12.53934211 1.10834309 17.4375 1.0625 C18.82098633 1.05573242 18.82098633 1.05573242 20.23242188 1.04882812 C22.48835048 1.03713938 24.74413967 1.02075455 27 1 C21.04920382 4.96719745 14.29710675 4.62211844 7.3828125 3.62109375 C2.96321235 2.7244656 2.96321235 2.7244656 1 2 C0.67 1.34 0.34 0.68 0 0 Z " fill="#DE577B" transform="translate(45,162)"/>
<path d="M0 0 C0 0.99 0 1.98 0 3 C-2.31 3.33 -4.62 3.66 -7 4 C-7.33 5.98 -7.66 7.96 -8 10 C-8.66 9.67 -9.32 9.34 -10 9 C-10.35807422 2.67402207 -10.35807422 2.67402207 -8.9375 0 C-5.86664787 -1.58495594 -3.27813225 -0.68036707 0 0 Z " fill="#6487B6" transform="translate(133,101)"/>
<path d="M0 0 C1.98 0.99 1.98 0.99 4 2 C3.67 2.66 3.34 3.32 3 4 C2.76827173 6.54615009 2.58105471 9.07396225 2.4375 11.625 C2.39431641 12.33140625 2.35113281 13.0378125 2.30664062 13.765625 C2.20055249 15.51018537 2.09977111 17.25506697 2 19 C1.34 19 0.68 19 0 19 C0 12.73 0 6.46 0 0 Z " fill="#BACFE9" transform="translate(201,146)"/>
<path d="M0 0 C-0.33 0.99 -0.66 1.98 -1 3 C-3.70716242 3.90238747 -5.23776768 4.11851302 -8.01171875 4.09765625 C-9.14770508 4.09282227 -9.14770508 4.09282227 -10.30664062 4.08789062 C-11.09232422 4.07951172 -11.87800781 4.07113281 -12.6875 4.0625 C-13.48478516 4.05798828 -14.28207031 4.05347656 -15.10351562 4.04882812 C-17.06904257 4.0370585 -19.03453085 4.01912348 -21 4 C-21 3.67 -21 3.34 -21 3 C-18.43850372 2.49432271 -15.87600535 1.99529868 -13.3125 1.5 C-12.59126953 1.35691406 -11.87003906 1.21382812 -11.12695312 1.06640625 C-7.36158641 0.34428113 -3.85526187 -0.1824976 0 0 Z " fill="#DB2B5C" transform="translate(67,137)"/>
<path d="M0 0 C1.32 0 2.64 0 4 0 C4 0.66 4 1.32 4 2 C4.66 2 5.32 2 6 2 C10.09030544 7.14209827 10.09030544 7.14209827 9.75 10.375 C9.37875 11.179375 9.37875 11.179375 9 12 C6.44971017 10.72485508 6.06918289 9.59658703 5 7 C5 6.01 5 5.02 5 4 C4.34 4 3.68 4 3 4 C1.375 2 1.375 2 0 0 Z " fill="#6E8FBC" transform="translate(173,120)"/>
<path d="M0 0 C2.64 0 5.28 0 8 0 C9.00496852 3.01490557 9.10335303 5.04181692 9.0625 8.1875 C9.05347656 9.08855469 9.04445313 9.98960938 9.03515625 10.91796875 C9.02355469 11.60503906 9.01195312 12.29210937 9 13 C8.34 13 7.68 13 7 13 C6.67 9.37 6.34 5.74 6 2 C3.03 1.505 3.03 1.505 0 1 C0 0.67 0 0.34 0 0 Z " fill="#DE4970" transform="translate(11,108)"/>
<path d="M0 0 C0.66 0.33 1.32 0.66 2 1 C2.28571429 8.42857143 2.28571429 8.42857143 0 12 C-2.64 12 -5.28 12 -8 12 C-8 11.34 -8 10.68 -8 10 C-6.865625 9.690625 -5.73125 9.38125 -4.5625 9.0625 C-1.21224901 8.37075469 -1.21224901 8.37075469 0 7 C0.04092937 4.66702567 0.04241723 2.33294775 0 0 Z " fill="#B8CDE0" transform="translate(134,103)"/>
<path d="M0 0 C1.65 0 3.3 0 5 0 C4.51917969 0.48984375 4.03835937 0.9796875 3.54296875 1.484375 C1.41610525 4.95197018 1.43486704 8.29230026 1.3125 12.25 C1.27833984 12.99507812 1.24417969 13.74015625 1.20898438 14.5078125 C1.12685946 16.33802492 1.06174347 18.16898669 1 20 C0.67 20 0.34 20 0 20 C0 13.4 0 6.8 0 0 Z " fill="#426DA6" transform="translate(191,104)"/>
<path d="M0 0 C10.02244165 -0.77760323 10.02244165 -0.77760323 13.75 2.1875 C15.16906534 5.38039701 15.11766451 6.74014519 14 10 C13.7525 9.4225 13.505 8.845 13.25 8.25 C11.73128177 5.51630719 10.50274557 3.90999004 8 2 C5.29826383 1.37373548 2.78474374 1.18564958 0 1 C0 0.67 0 0.34 0 0 Z " fill="#DE5679" transform="translate(53,127)"/>
<path d="M0 0 C2.97 0 5.94 0 9 0 C8.34 1.32 7.68 2.64 7 4 C5.02 3.34 3.04 2.68 1 2 C0.67 2.66 0.34 3.32 0 4 C0 2.68 0 1.36 0 0 Z " fill="#6185B7" transform="translate(103,103)"/>
<path d="M0 0 C0.33 0.66 0.66 1.32 1 2 C0.06421005 4.35981813 -0.93347808 6.69631264 -2 9 C-2.99 8.34 -3.98 7.68 -5 7 C-4.60196439 4.11424181 -4.20990931 3.17810487 -1.9375 1.25 C-1.298125 0.8375 -0.65875 0.425 0 0 Z " fill="#CCDDEF" transform="translate(217,136)"/>
<path d="M0 0 C0.33 0.99 0.66 1.98 1 3 C-1 5 -1 5 -4.125 5.125 C-5.548125 5.063125 -5.548125 5.063125 -7 5 C-7.33 4.34 -7.66 3.68 -8 3 C-5.36 2.67 -2.72 2.34 0 2 C0 1.34 0 0.68 0 0 Z " fill="#587AA8" transform="translate(226,160)"/>
<path d="M0 0 C0.99 0 1.98 0 3 0 C3 2.31 3 4.62 3 7 C2.01 7.33 1.02 7.66 0 8 C0 5.36 0 2.72 0 0 Z " fill="#F4CBD8" transform="translate(74,154)"/>
<path d="M0 0 C0.99 0 1.98 0 3 0 C2.67 2.64 2.34 5.28 2 8 C1.34 7.67 0.68 7.34 0 7 C0 4.69 0 2.38 0 0 Z " fill="#CDE1EE" transform="translate(234,102)"/>
</svg>
