<?xml version="1.0" encoding="UTF-8"?>
<svg version="1.1" xmlns="http://www.w3.org/2000/svg" width="64" height="64">
<path d="M0 0 C21.12 0 42.24 0 64 0 C64 21.12 64 42.24 64 64 C42.88 64 21.76 64 0 64 C0 42.88 0 21.76 0 0 Z " fill="#FCFBFC" transform="translate(0,0)"/>
<path d="M0 0 C0.66 0 1.32 0 2 0 C2 3.63 2 7.26 2 11 C4.64 11 7.28 11 10 11 C10 8.03 10 5.06 10 2 C11.32 2 12.64 2 14 2 C14 4.97 14 7.94 14 11 C14.99 11 15.98 11 17 11 C17 8.36 17 5.72 17 3 C17.33 3 17.66 3 18 3 C18 5.64 18 8.28 18 11 C18.99 11 19.98 11 21 11 C21 9.68 21 8.36 21 7 C21.66 7 22.32 7 23 7 C23.66 7.99 24.32 8.98 25 10 C28.3 10 31.6 10 35 10 C35 17.92 35 25.84 35 34 C13.88 34 -7.24 34 -29 34 C-29 25.42 -29 16.84 -29 8 C-27.515 8.99 -27.515 8.99 -26 10 C-24.0103005 10.39013716 -22.00980131 10.73202649 -20 11 C-19.67 10.34 -19.34 9.68 -19 9 C-18.67 9.33 -18.34 9.66 -18 10 C-14.54187831 10.33338596 -14.54187831 10.33338596 -11 10 C-10.34 9.01 -9.68 8.02 -9 7 C-9 8.32 -9 9.64 -9 11 C-6.03 11 -3.06 11 0 11 C0 7.37 0 3.74 0 0 Z " fill="#FDFDFD" transform="translate(29,30)"/>
<path d="M0 0 C0.99 0 1.98 0 3 0 C3 4.95 3 9.9 3 15 C1.68 14.67 0.36 14.34 -1 14 C-1.33 14.33 -1.66 14.66 -2 15 C-5.4375 15.25 -5.4375 15.25 -9 15 C-11 12 -11 12 -10.6875 8.375 C-10 5 -10 5 -9 4 C-6.0625 3.8125 -6.0625 3.8125 -3 4 C-2.34 4.66 -1.68 5.32 -1 6 C-0.67 4.02 -0.34 2.04 0 0 Z " fill="#EE88A4" transform="translate(20,26)"/>
<path d="M0 0 C0.66 0 1.32 0 2 0 C2 2.64 2 5.28 2 8 C2.66 8 3.32 8 4 8 C4.66 6.68 5.32 5.36 6 4 C6.99 4 7.98 4 9 4 C9 4.66 9 5.32 9 6 C9.969375 5.979375 10.93875 5.95875 11.9375 5.9375 C15 6 15 6 16 7 C16.125 10.5 16.125 10.5 16 14 C15 15 15 15 12.93359375 15.09765625 C12.10988281 15.08605469 11.28617188 15.07445312 10.4375 15.0625 C9.61121094 15.05347656 8.78492188 15.04445313 7.93359375 15.03515625 C7.29550781 15.02355469 6.65742187 15.01195312 6 15 C5.34 13.68 4.68 12.36 4 11 C3.34 11 2.68 11 2 11 C2 12.32 2 13.64 2 15 C1.34 15 0.68 15 0 15 C0 10.05 0 5.1 0 0 Z " fill="#E4EBF2" transform="translate(48,26)"/>
<path d="M0 0 C0 5 0 10 0 15 C-0.99 15 -1.98 15 -3 15 C-3 11.37 -3 7.74 -3 4 C-3.66 4 -4.32 4 -5 4 C-5 7.63 -5 11.26 -5 15 C-5.99 15 -6.98 15 -8 15 C-8 10.05 -8 5.1 -8 0 C-3 -1 -3 -1 0 0 Z " fill="#7598C7" transform="translate(34,26)"/>
<path d="M0 0 C3.5625 0.1875 3.5625 0.1875 5.5625 2.1875 C5.7578125 4.3515625 5.7578125 4.3515625 5.6875 6.8125 C5.66945313 7.62976562 5.65140625 8.44703125 5.6328125 9.2890625 C5.59800781 10.22878906 5.59800781 10.22878906 5.5625 11.1875 C4.5725 11.1875 3.5825 11.1875 2.5625 11.1875 C2.5625 8.2175 2.5625 5.2475 2.5625 2.1875 C1.2425 2.1875 -0.0775 2.1875 -1.4375 2.1875 C-1.4375 5.1575 -1.4375 8.1275 -1.4375 11.1875 C-2.4275 11.1875 -3.4175 11.1875 -4.4375 11.1875 C-4.46438151 9.54175434 -4.48384123 7.89588587 -4.5 6.25 C-4.51160156 5.33347656 -4.52320313 4.41695312 -4.53515625 3.47265625 C-4.37688684 -0.23084786 -3.83485767 0.20917405 0 0 Z " fill="#527DB8" transform="translate(40.4375,29.8125)"/>
<path d="M0 0 C0.66 0 1.32 0 2 0 C2 2.64 2 5.28 2 8 C2.66 8 3.32 8 4 8 C4.66 6.68 5.32 5.36 6 4 C6.66 4 7.32 4 8 4 C7.835 4.598125 7.67 5.19625 7.5 5.8125 C6.63232228 9.60859004 7.16467517 11.67347375 9 15 C7.0625 14.6875 7.0625 14.6875 5 14 C4.67 13.01 4.34 12.02 4 11 C3.34 11 2.68 11 2 11 C2 12.32 2 13.64 2 15 C1.34 15 0.68 15 0 15 C0 10.05 0 5.1 0 0 Z " fill="#4776B6" transform="translate(48,26)"/>
<path d="M0 0 C1.4540625 0.0309375 1.4540625 0.0309375 2.9375 0.0625 C3.2675 1.3825 3.5975 2.7025 3.9375 4.0625 C2.2875 3.7325 0.6375 3.4025 -1.0625 3.0625 C-1.3925 3.7225 -1.7225 4.3825 -2.0625 5.0625 C-0.4125 5.0625 1.2375 5.0625 2.9375 5.0625 C2.9375 5.3925 2.9375 5.7225 2.9375 6.0625 C1.2875 6.0625 -0.3625 6.0625 -2.0625 6.0625 C-1.7325 6.7225 -1.4025 7.3825 -1.0625 8.0625 C1.96684491 8.72022428 1.96684491 8.72022428 4.9375 9.0625 C4.6075 9.7225 4.2775 10.3825 3.9375 11.0625 C0.5625 11.25 0.5625 11.25 -3.0625 11.0625 C-5.0625 8.0625 -5.0625 8.0625 -4.75 4.4375 C-3.86212049 0.07881879 -3.86212049 0.07881879 0 0 Z " fill="#E63F69" transform="translate(14.0625,29.9375)"/>
<path d="M0 0 C0.99 0 1.98 0 3 0 C3 0.99 3 1.98 3 3 C3.99 3 4.98 3 6 3 C6 3.66 6 4.32 6 5 C5.01 5 4.02 5 3 5 C3 7.31 3 9.62 3 12 C3.99 12 4.98 12 6 12 C6 12.66 6 13.32 6 14 C4.33388095 14.042721 2.66617115 14.04063832 1 14 C-0 13 -0 13 -0.09765625 10.05859375 C-0.08605469 8.86363281 -0.07445313 7.66867188 -0.0625 6.4375 C-0.05347656 5.23996094 -0.04445312 4.04242188 -0.03515625 2.80859375 C-0.02355469 1.88175781 -0.01195313 0.95492188 0 0 Z " fill="#E64C73" transform="translate(2,27)"/>
<path d="M0 0 C2.30163882 3.45245824 2.34490322 4.94738713 2 9 C1.34 9.66 0.68 10.32 0 11 C0 10.34 0 9.68 0 9 C-0.99 9 -1.98 9 -3 9 C-3 6.69 -3 4.38 -3 2 C-2.01 2 -1.02 2 0 2 C0 1.34 0 0.68 0 0 Z " fill="#F7DDE4" transform="translate(8,30)"/>
<path d="M0 0 C0.99 0 1.98 0 3 0 C3 3.63 3 7.26 3 11 C2.01 11 1.02 11 0 11 C0 7.37 0 3.74 0 0 Z " fill="#5A83BB" transform="translate(31,30)"/>
<path d="M0 0 C0.33 0.66 0.66 1.32 1 2 C2.65 2 4.3 2 6 2 C6 2.99 6 3.98 6 5 C5.236875 4.773125 4.47375 4.54625 3.6875 4.3125 C2.800625 4.209375 1.91375 4.10625 1 4 C-0.8354799 5.33378575 -0.8354799 5.33378575 -2 7 C-2 3.89448334 -1.4606285 2.64738916 0 0 Z " fill="#B5C7DE" transform="translate(56,30)"/>
<path d="M0 0 C0.928125 0.2784375 0.928125 0.2784375 1.875 0.5625 C4.04160178 1.23686176 4.04160178 1.23686176 6 0 C6 1.32 6 2.64 6 4 C3.69 3.67 1.38 3.34 -1 3 C-0.67 2.01 -0.34 1.02 0 0 Z " fill="#EF98AE" transform="translate(13,32)"/>
<path d="M0 0 C0.66 0 1.32 0 2 0 C2 0.66 2 1.32 2 2 C3.98 2 5.96 2 8 2 C8 2.33 8 2.66 8 3 C6.35 3 4.7 3 3 3 C3 3.66 3 4.32 3 5 C2.01 5 1.02 5 0 5 C0 3.35 0 1.7 0 0 Z " fill="#E72F5E" transform="translate(9,33)"/>
<path d="M0 0 C0.33 0 0.66 0 1 0 C1.33 1.65 1.66 3.3 2 5 C2.99 5.33 3.98 5.66 5 6 C5 6.66 5 7.32 5 8 C3.35 8 1.7 8 0 8 C0 5.36 0 2.72 0 0 Z " fill="#E8295B" transform="translate(3,33)"/>
</svg>
